<svg width="84" height="95" viewBox="0 0 84 95" fill="none" xmlns="http://www.w3.org/2000/svg">
<path d="M48.6323 94.13V72.55L41.1248 68L32.4473 72.55V94.13H48.6323Z" fill="#7D4533"/>
<path d="M64.363 19.25H19.4805L29.7505 73.2325H78.468C79.7609 73.2325 81.0009 72.7189 81.9151 71.8046C82.8294 70.8904 83.343 69.6504 83.343 68.3575V38.23C83.3105 27.7325 74.828 19.25 64.363 19.25Z" fill="#27292C"/>
<path d="M19.48 19.25C8.9825 19.25 0.5 27.7325 0.5 38.23V68.3575C0.5 69.6504 1.01361 70.8904 1.92785 71.8046C2.84209 72.7189 4.08207 73.2325 5.375 73.2325H33.5525C34.8454 73.2325 36.0854 72.7189 36.9996 71.8046C37.9139 70.8904 38.4275 69.6504 38.4275 68.3575V38.23C38.4275 27.7325 29.945 19.25 19.48 19.25Z" fill="#9AA2AC"/>
<path d="M19.48 22.5C17.4136 22.4974 15.367 22.9026 13.4574 23.6922C11.5478 24.4818 9.81268 25.6403 8.3515 27.1015C6.89032 28.5627 5.73176 30.2978 4.94216 32.2074C4.15256 34.117 3.74745 36.1636 3.75001 38.23V68.3575C3.75001 69.2545 4.47801 69.95 5.37501 69.95H9.05726L34.6998 34.3625C33.8458 30.9729 31.8849 27.9653 29.1279 25.8165C26.3709 23.6676 22.9755 22.5005 19.48 22.5Z" fill="#555555"/>
<path d="M72.429 3H55.321C53.7773 3 52.5 4.19925 52.5 5.652V13.348C52.5 14.8007 53.7772 16 55.3242 16H72.4258C73.9728 16 75.25 14.8007 75.25 13.348V5.652C75.25 4.19925 73.976 3 72.429 3Z" fill="#F92F60"/>
<path d="M49.9328 4.88514C49.9328 2.70764 51.6878 0.952637 53.8653 0.952637C56.0428 0.952637 57.7978 2.70764 57.7978 4.88514V33.8231C59.2975 34.6887 60.4697 36.0249 61.1325 37.6246C61.7953 39.2243 61.9117 40.9981 61.4635 42.6707C61.0154 44.3432 60.0278 45.8212 58.6539 46.8752C57.2801 47.9292 55.5968 48.5004 53.8653 48.5001C52.1337 48.5004 50.4504 47.9292 49.0766 46.8752C47.7027 45.8212 46.7151 44.3432 46.267 42.6707C45.8188 40.9981 45.9352 39.2243 46.598 37.6246C47.2608 36.0249 48.433 34.6887 49.9328 33.8231V4.88514Z" fill="#D3D3D3"/>
<path d="M34.9728 35.6821H8.87525C8.63383 35.6769 8.39376 35.7194 8.16878 35.8071C7.9438 35.8948 7.73834 36.0261 7.56415 36.1933C7.38997 36.3606 7.25048 36.5605 7.15367 36.7818C7.05687 37.003 7.00465 37.2411 7 37.4826V66.3751C7 67.3761 7.83525 68.1788 8.87525 68.1788H35.1775V38.2301C35.1775 37.3591 35.1093 36.5097 34.9728 35.6821Z" fill="#E1D8EC"/>
<path d="M35.0247 36.02H8.87525C8.63329 36.0148 8.3927 36.0575 8.1673 36.1456C7.94191 36.2338 7.73616 36.3656 7.56188 36.5335C7.38761 36.7014 7.24825 36.9022 7.15183 37.1241C7.0554 37.3461 7.0038 37.585 7 37.8269V39.686L30.7542 54.2525C31.4194 54.6572 32.1815 54.8748 32.9601 54.8823C33.7386 54.8897 34.5048 54.6867 35.1775 54.2947V38.23C35.1775 37.4803 35.1266 36.7436 35.0247 36.02Z" fill="#CDC4D6"/>
<path d="M34.6672 34.2328H8.87525C8.63329 34.2277 8.3927 34.2704 8.1673 34.3585C7.94191 34.4467 7.73616 34.5785 7.56188 34.7464C7.38761 34.9143 7.24825 35.1151 7.15183 35.337C7.0554 35.559 7.0038 35.7979 7 36.0398V37.8988L30.7542 52.4653C31.4194 52.8701 32.1815 53.0877 32.9601 53.0951C33.7386 53.1026 34.5048 52.8996 35.1775 52.5076V38.2303C35.1753 36.8458 35.0052 35.5133 34.6672 34.2328ZM35.1775 54.2951C34.5048 54.6871 33.7386 54.8901 32.9601 54.8826C32.1815 54.8752 31.4194 54.6576 30.7542 54.2528L28.671 52.9756L7 66.2681V68.1433C7 69.1248 7.83525 69.9308 8.87525 69.9471H33.8905C34.2546 69.8697 34.5811 69.6696 34.8153 69.3803C35.0496 69.091 35.1775 68.7301 35.1775 68.3578V54.2951Z" fill="#F3EEF8"/>
</svg>
